HIERARCHY
ROOT	Character1_Hips
{
	OFFSET	0.000	0.000	0.000
	CHANNELS	6	Xposition	Yposition	Zposition	Yrotation	Xrotation	Zrotation
	JOINT	Character1_LeftUpLeg
	{
		OFFSET	7.642	0.000	-0.000
		CHANNELS	3	Yrotation	Xrotation	Zrotation
		JOINT	Character1_LeftLeg
		{
			OFFSET	-0.000	-40.759	0.000
			CHANNELS	3	Yrotation	Xrotation	Zrotation
			JOINT	Character1_LeftFoot
			{
				OFFSET	0.059	-40.854	0.000
				CHANNELS	3	Yrotation	Xrotation	Zrotation
				End Site
				{
					OFFSET	-0.000	-5.879	12.409
				}
			}
		}
	}
	JOINT	Character1_RightUpLeg
	{
		OFFSET	-7.642	0.000	-0.000
		CHANNELS	3	Yrotation	Xrotation	Zrotation
		JOINT	Character1_RightLeg
		{
			OFFSET	0.000	-40.759	0.000
			CHANNELS	3	Yrotation	Xrotation	Zrotation
			JOINT	Character1_RightFoot
			{
				OFFSET	-0.059	-40.854	0.000
				CHANNELS	3	Yrotation	Xrotation	Zrotation
				End Site
				{
					OFFSET	0.001	-5.879	12.409
				}
			}
		}
	}
	JOINT	Character1_Spine
	{
		OFFSET	0.000	8.005	-3.725
		CHANNELS	3	Yrotation	Xrotation	Zrotation
		JOINT	Character1_Spine1
		{
			OFFSET	-0.056	15.168	0.251
			CHANNELS	3	Yrotation	Xrotation	Zrotation
			JOINT	Character1_Spine2
			{
				OFFSET	-0.056	15.168	0.251
				CHANNELS	3	Yrotation	Xrotation	Zrotation
				JOINT	Character1_LeftShoulder
				{
					OFFSET	6.586	7.784	2.058
					CHANNELS	3	Yrotation	Xrotation	Zrotation
					JOINT	Character1_LeftArm
					{
						OFFSET	12.411	-0.000	-3.325
						CHANNELS	3	Yrotation	Xrotation	Zrotation
						JOINT	Character1_LeftForeArm
						{
							OFFSET	24.625	-0.000	0.000
							CHANNELS	3	Yrotation	Xrotation	Zrotation
							JOINT	Character1_LeftHand
							{
								OFFSET	27.116	-0.000	-0.000
								CHANNELS	3	Yrotation	Xrotation	Zrotation
								JOINT	Character1_LeftHandIndex1
								{
									OFFSET	7.694	-0.099	2.444
									CHANNELS	3	Yrotation	Xrotation	Zrotation
									JOINT	Character1_LeftHandIndex2
									{
										OFFSET	4.425	0.000	0.000
										CHANNELS	3	Yrotation	Xrotation	Zrotation
										End Site
										{
											OFFSET	2.723	0.000	-0.000
										}
									}
								}
								JOINT	Character1_LeftHandMiddle1
								{
									OFFSET	7.779	-0.099	0.521
									CHANNELS	3	Yrotation	Xrotation	Zrotation
									JOINT	Character1_LeftHandMiddle2
									{
										OFFSET	4.496	0.000	-0.000
										CHANNELS	3	Yrotation	Xrotation	Zrotation
										End Site
										{
											OFFSET	2.965	0.000	-0.000
										}
									}
								}
								JOINT	Character1_LeftHandPinky1
								{
									OFFSET	6.689	-0.099	-2.991
									CHANNELS	3	Yrotation	Xrotation	Zrotation
									JOINT	Character1_LeftHandPinky2
									{
										OFFSET	3.598	-0.000	-0.000
										CHANNELS	3	Yrotation	Xrotation	Zrotation
										End Site
										{
											OFFSET	2.262	-0.000	0.000
										}
									}
								}
								JOINT	Character1_LeftHandRing1
								{
									OFFSET	7.440	-0.099	-1.373
									CHANNELS	3	Yrotation	Xrotation	Zrotation
									JOINT	Character1_LeftHandRing2
									{
										OFFSET	4.243	0.000	-0.000
										CHANNELS	3	Yrotation	Xrotation	Zrotation
										End Site
										{
											OFFSET	2.737	-0.000	-0.000
										}
									}
								}
								JOINT	Character1_LeftHandThumb1
								{
									OFFSET	1.988	-0.099	2.664
									CHANNELS	3	Yrotation	Xrotation	Zrotation
									JOINT	Character1_LeftHandThumb2
									{
										OFFSET	3.554	-0.758	1.001
										CHANNELS	3	Yrotation	Xrotation	Zrotation
										End Site
										{
											OFFSET	2.731	-0.463	-0.717
										}
									}
								}
							}
						}
					}
				}
				JOINT	Character1_Neck
				{
					OFFSET	-0.056	15.168	0.251
					CHANNELS	3	Yrotation	Xrotation	Zrotation
					End Site
					{
						OFFSET	-0.000	9.862	0.000
					}
				}
				JOINT	Character1_RightShoulder
				{
					OFFSET	-6.699	7.784	2.058
					CHANNELS	3	Yrotation	Xrotation	Zrotation
					JOINT	Character1_RightArm
					{
						OFFSET	-12.411	-0.001	-3.325
						CHANNELS	3	Yrotation	Xrotation	Zrotation
						JOINT	Character1_RightForeArm
						{
							OFFSET	-24.625	-0.000	0.000
							CHANNELS	3	Yrotation	Xrotation	Zrotation
							JOINT	Character1_RightHand
							{
								OFFSET	-27.116	-0.000	-0.000
								CHANNELS	3	Yrotation	Xrotation	Zrotation
								JOINT	Character1_RightHandIndex1
								{
									OFFSET	-7.694	-0.099	2.444
									CHANNELS	3	Yrotation	Xrotation	Zrotation
									JOINT	Character1_RightHandIndex2
									{
										OFFSET	-4.423	0.000	0.154
										CHANNELS	3	Yrotation	Xrotation	Zrotation
										End Site
										{
											OFFSET	-2.721	-0.000	0.095
										}
									}
								}
								JOINT	Character1_RightHandMiddle1
								{
									OFFSET	-7.779	-0.099	0.521
									CHANNELS	3	Yrotation	Xrotation	Zrotation
									JOINT	Character1_RightHandMiddle2
									{
										OFFSET	-4.493	0.000	0.157
										CHANNELS	3	Yrotation	Xrotation	Zrotation
										End Site
										{
											OFFSET	-2.964	0.000	0.103
										}
									}
								}
								JOINT	Character1_RightHandPinky1
								{
									OFFSET	-6.689	-0.099	-2.991
									CHANNELS	3	Yrotation	Xrotation	Zrotation
									JOINT	Character1_RightHandPinky2
									{
										OFFSET	-3.596	0.000	0.126
										CHANNELS	3	Yrotation	Xrotation	Zrotation
										End Site
										{
											OFFSET	-2.260	0.000	0.079
										}
									}
								}
								JOINT	Character1_RightHandRing1
								{
									OFFSET	-7.440	-0.099	-1.373
									CHANNELS	3	Yrotation	Xrotation	Zrotation
									JOINT	Character1_RightHandRing2
									{
										OFFSET	-4.241	-0.000	0.148
										CHANNELS	3	Yrotation	Xrotation	Zrotation
										End Site
										{
											OFFSET	-2.735	-0.000	0.096
										}
									}
								}
								JOINT	Character1_RightHandThumb1
								{
									OFFSET	-1.988	-0.099	2.664
									CHANNELS	3	Yrotation	Xrotation	Zrotation
									JOINT	Character1_RightHandThumb2
									{
										OFFSET	-3.554	-0.758	1.001
										CHANNELS	3	Yrotation	Xrotation	Zrotation
										End Site
										{
											OFFSET	-2.731	-0.463	-0.717
										}
									}
								}
							}
						}
					}
				}
			}
		}
	}
}
MOTION
Frames:	12
Frame Time:	0.010
-0.000	88.689	0.000	-0.000	-0.000	-0.000	-0.000	-0.000	-0.000	-0.000	-0.000	-0.000	-0.000	-0.000	-0.000	-0.000	-0.000	-0.000	-0.000	-0.000	-0.000	-0.005	-0.000	-0.000	-0.000	-0.000	-0.000	-0.000	-0.000	-0.000	-0.000	-0.000	-0.000	-0.000	-0.000	0.001	0.000	-0.000	-0.001	-0.000	-0.000	0.000	-0.000	-0.000	-0.000	0.000	0.000	-0.000	0.000	-0.000	-0.000	-0.004	-0.000	0.000	-0.000	-0.000	-0.000	0.000	-0.000	0.001	-0.000	-0.000	0.000	-0.004	-0.000	0.000	-0.000	-0.000	-0.000	-14.555	355.469	-349.206	-0.000	0.000	-0.000	-0.000	-0.000	-0.000	-0.000	0.000	-0.002	0.000	-0.000	0.002	-0.000	-0.000	0.000	-0.000	-0.000	-0.000	-2.000	0.000	-0.000	-0.000	-0.000	0.000	-2.000	0.000	-0.000	-0.000	-0.000	0.000	-2.000	0.000	0.001	0.000	-0.000	-0.000	-2.000	0.000	-0.000	-0.000	-0.000	0.000	-345.450	355.468	-10.793	0.000	0.000	-0.001	
-0.000	88.689	0.000	-0.000	-0.000	-0.000	-0.000	-0.000	-0.000	-0.000	-0.000	-0.000	-0.000	-0.000	-0.000	-0.000	-0.000	-0.000	-0.000	-0.000	-0.000	-0.005	-0.000	-0.000	-0.000	-0.000	-0.000	-0.000	-0.000	-0.000	-0.000	-0.000	-0.000	-0.000	-0.000	0.001	0.000	-0.000	-0.001	-0.000	-0.000	0.000	-0.000	-0.000	-0.000	0.000	0.000	-0.000	0.000	-0.000	-0.000	-0.004	-0.000	0.000	-0.000	-0.000	-0.000	0.000	-0.000	0.001	-0.000	-0.000	0.000	-0.004	-0.000	0.000	-0.000	-0.000	-0.000	-14.555	355.469	-349.206	-0.000	0.000	-0.000	-0.000	-0.000	-0.000	-0.000	0.000	-0.002	0.000	-0.000	0.002	-0.000	-0.000	0.000	-0.000	-0.000	-0.000	-2.000	0.000	-0.000	-0.000	-0.000	0.000	-2.000	0.000	-0.000	-0.000	-0.000	0.000	-2.000	0.000	0.001	0.000	-0.000	-0.000	-2.000	0.000	-0.000	-0.000	-0.000	0.000	-345.450	355.468	-10.793	0.000	0.000	-0.001	
-0.000	88.689	0.000	-0.000	-0.000	-0.000	-0.000	-0.000	-0.000	-0.000	-0.000	-0.000	-0.000	-0.000	-0.000	-0.000	-0.000	-0.000	-0.000	-0.000	-0.000	-0.005	-0.000	-0.000	-0.000	-0.000	-0.000	-0.000	-0.000	-0.000	-0.000	-0.000	-0.000	-0.000	-0.000	0.001	0.000	-0.000	-0.001	-0.000	-0.000	0.000	-0.000	-0.000	-0.000	0.000	0.000	-0.000	0.000	-0.000	-0.000	-0.004	-0.000	0.000	-0.000	-0.000	-0.000	0.000	-0.000	0.001	-0.000	-0.000	0.000	-0.004	-0.000	0.000	-0.000	-0.000	-0.000	-14.555	355.469	-349.206	-0.000	0.000	-0.000	-0.000	-0.000	-0.000	-0.000	0.000	-0.002	0.000	-0.000	0.002	-0.000	-0.000	0.000	-0.000	-0.000	-0.000	-2.000	0.000	-0.000	-0.000	-0.000	0.000	-2.000	0.000	-0.000	-0.000	-0.000	0.000	-2.000	0.000	0.001	0.000	-0.000	-0.000	-2.000	0.000	-0.000	-0.000	-0.000	0.000	-345.450	355.468	-10.793	0.000	0.000	-0.001	
-13.358	88.387	27.789	-331.620	16.986	-351.523	-7.328	341.233	-353.882	-0.004	27.283	-0.001	-0.865	9.496	-3.613	-16.332	327.754	-357.701	-359.993	20.518	0.001	-5.948	354.120	-3.259	-0.483	6.034	-358.701	-0.835	12.113	-357.424	0.000	0.000	-0.000	-1.930	352.548	-345.742	-6.573	1.552	-96.617	-23.290	1.294	-359.537	-350.730	356.460	-356.416	-358.786	3.147	-31.263	0.000	0.000	-32.168	-358.399	0.570	-39.256	0.001	-0.002	-39.272	-351.693	351.771	-38.370	0.000	-0.000	-33.500	-354.460	355.219	-43.032	0.001	-0.002	-40.673	-3.528	26.483	-16.844	-8.411	19.965	-354.401	-2.224	347.701	-358.613	-349.095	353.343	-354.385	-333.702	327.521	-314.459	-335.589	336.615	-6.374	-356.569	38.849	-85.459	-5.570	4.618	-330.756	-359.684	1.079	-327.368	-4.590	1.871	-328.338	-359.701	1.053	-328.253	-18.356	355.922	-321.702	-359.702	1.050	-328.350	-5.145	356.721	-327.840	-359.739	0.988	-330.419	-345.607	44.696	-346.442	-337.108	356.815	-350.020	
-13.352	88.946	27.763	-331.609	16.984	-351.516	-7.108	342.796	-354.044	-0.007	23.939	-0.001	-0.846	11.260	-3.540	-16.324	330.257	-357.770	-359.991	15.541	0.001	-5.834	356.582	-3.482	-0.484	6.035	-358.700	-0.838	12.115	-357.422	0.000	0.000	-0.000	-1.932	352.549	-345.737	-6.571	1.560	-96.629	-23.298	1.292	-359.543	-350.634	356.447	-356.300	-358.770	3.154	-31.291	0.000	0.000	-32.200	-358.385	0.575	-39.273	0.001	-0.002	-39.290	-351.683	351.784	-38.367	0.000	-0.000	-33.492	-354.441	355.219	-43.042	0.001	-0.002	-40.684	-3.530	26.487	-16.863	-8.420	19.956	-354.459	-2.221	347.704	-358.611	-349.096	353.343	-354.386	-333.629	327.520	-314.488	-335.619	336.635	-6.399	-356.623	38.795	-85.518	-5.572	4.614	-330.780	-359.686	1.076	-327.455	-4.485	1.815	-328.762	-359.709	1.040	-328.684	-18.388	355.936	-321.728	-359.703	1.049	-328.380	-5.225	356.746	-327.844	-359.740	0.987	-330.454	-345.639	44.704	-346.447	-337.182	356.805	-349.966	
-13.343	88.915	27.746	-331.601	16.993	-351.493	-7.147	342.675	-354.064	-0.007	24.148	-0.001	-0.811	11.155	-3.541	-16.310	330.056	-357.798	-359.991	15.881	0.001	-5.849	356.424	-3.458	-0.483	6.031	-358.705	-0.837	12.107	-357.433	-0.000	-0.000	0.000	-1.933	352.558	-345.727	-6.578	1.555	-96.644	-23.300	1.278	-359.549	-350.598	356.439	-356.250	-358.761	3.158	-31.304	0.000	0.000	-32.216	-358.377	0.578	-39.283	0.001	-0.002	-39.300	-351.678	351.788	-38.368	0.000	-0.000	-33.490	-354.433	355.220	-43.047	0.001	-0.002	-40.690	-3.530	26.489	-16.870	-8.424	19.952	-354.481	-2.221	347.698	-358.616	-349.104	353.342	-354.388	-333.611	327.552	-314.528	-335.617	336.640	-6.369	-356.677	38.733	-85.581	-5.578	4.606	-330.840	-359.687	1.074	-327.542	-4.434	1.784	-329.039	-359.714	1.032	-328.963	-18.413	355.946	-321.760	-359.704	1.048	-328.414	-5.198	356.738	-327.871	-359.740	0.986	-330.484	-345.669	44.713	-346.443	-337.255	356.789	-349.892	
-13.331	89.020	27.725	-331.592	17.000	-351.466	-7.122	342.978	-354.128	-0.008	23.471	-0.001	-0.772	11.499	-3.521	-16.294	330.572	-357.845	-359.991	14.807	0.001	-5.831	356.961	-3.503	-0.484	6.029	-358.713	-0.840	12.102	-357.450	0.000	-0.000	-0.000	-1.934	352.568	-345.717	-6.586	1.552	-96.648	-23.311	1.264	-359.551	-350.594	356.440	-356.250	-358.761	3.158	-31.304	0.000	0.000	-32.216	-358.377	0.578	-39.283	0.001	-0.002	-39.300	-351.678	351.788	-38.368	0.000	-0.000	-33.490	-354.433	355.220	-43.047	0.001	-0.002	-40.690	-3.530	26.489	-16.870	-8.424	19.952	-354.481	-2.217	347.694	-358.615	-349.109	353.347	-354.386	-333.587	327.583	-314.571	-335.609	336.635	-6.346	-356.672	38.722	-85.567	-5.578	4.606	-330.840	-359.687	1.074	-327.542	-4.434	1.784	-329.039	-359.714	1.032	-328.963	-18.413	355.946	-321.760	-359.704	1.048	-328.414	-5.198	356.738	-327.871	-359.740	0.986	-330.484	-345.669	44.713	-346.443	-337.255	356.789	-349.892	
-13.319	89.053	27.705	-331.599	17.052	-351.426	-7.095	343.051	-354.189	-0.008	23.201	-0.002	-0.719	11.591	-3.525	-16.276	330.670	-357.881	-359.991	14.468	0.001	-5.820	357.132	-3.499	-0.477	6.012	-358.734	-0.829	12.068	-357.490	-0.000	-0.000	0.000	-1.932	352.587	-345.688	-6.607	1.543	-96.656	-23.321	1.247	-359.528	-350.554	356.439	-356.221	-358.746	3.164	-31.320	0.000	0.000	-32.236	-358.360	0.584	-39.295	0.001	-0.002	-39.313	-351.673	351.776	-38.476	0.000	-0.000	-33.578	-354.444	355.210	-43.163	0.001	-0.002	-40.799	-3.531	26.490	-16.877	-8.427	19.948	-354.503	-2.214	347.682	-358.606	-349.110	353.358	-354.360	-333.477	327.614	-314.659	-335.600	336.628	-6.372	-356.728	38.732	-85.531	-5.588	4.591	-330.947	-359.690	1.070	-327.681	-4.358	1.740	-329.426	-359.721	1.020	-329.354	-18.420	355.949	-321.826	-359.705	1.046	-328.476	-5.167	356.732	-327.989	-359.742	0.982	-330.602	-345.738	44.736	-346.424	-337.426	356.741	-349.690	
-13.320	89.057	27.706	-331.593	17.064	-351.430	-7.049	343.066	-354.188	-0.008	23.145	-0.001	-0.751	11.587	-3.522	-16.291	330.695	-357.866	-359.991	14.400	0.001	-5.817	357.154	-3.503	-0.476	6.010	-358.731	-0.825	12.065	-357.485	0.000	0.000	-0.000	-1.928	352.592	-345.680	-6.611	1.536	-96.659	-23.331	1.240	-359.505	-350.537	356.445	-356.232	-358.740	3.166	-31.325	0.000	0.000	-32.242	-358.354	0.587	-39.297	0.001	-0.002	-39.315	-351.671	351.780	-38.469	0.000	-0.000	-33.570	-354.441	355.209	-43.164	0.001	-0.002	-40.800	-3.531	26.491	-16.879	-8.428	19.947	-354.510	-2.212	347.661	-358.599	-349.108	353.357	-354.348	-333.391	327.613	-314.697	-335.639	336.636	-6.417	-356.783	38.661	-85.600	-5.593	4.583	-331.002	-359.691	1.068	-327.746	-4.334	1.727	-329.524	-359.722	1.017	-329.453	-18.438	355.957	-321.872	-359.706	1.045	-328.525	-5.177	356.736	-328.029	-359.743	0.981	-330.644	-345.770	44.748	-346.402	-337.509	356.708	-349.559	
-13.320	89.057	27.706	-331.593	17.064	-351.430	-7.049	343.066	-354.188	-0.008	23.145	-0.001	-0.751	11.587	-3.522	-16.291	330.695	-357.866	-359.991	14.400	0.001	-5.817	357.154	-3.503	-0.476	6.010	-358.731	-0.825	12.065	-357.485	0.000	0.000	-0.000	-1.928	352.592	-345.680	-6.611	1.536	-96.659	-23.331	1.240	-359.505	-350.537	356.445	-356.232	-358.740	3.166	-31.325	0.000	0.000	-32.242	-358.354	0.587	-39.297	0.001	-0.002	-39.315	-351.671	351.780	-38.469	0.000	-0.000	-33.570	-354.441	355.209	-43.164	0.001	-0.002	-40.800	-3.531	26.491	-16.879	-8.428	19.947	-354.510	-2.212	347.661	-358.599	-349.108	353.357	-354.348	-333.391	327.613	-314.697	-335.639	336.636	-6.417	-356.783	38.661	-85.600	-5.593	4.583	-331.002	-359.691	1.068	-327.746	-4.334	1.727	-329.524	-359.722	1.017	-329.453	-18.438	355.957	-321.872	-359.706	1.045	-328.525	-5.177	356.736	-328.029	-359.743	0.981	-330.644	-345.770	44.748	-346.402	-337.509	356.708	-349.559	
-13.319	89.059	27.712	-331.591	17.074	-351.436	-7.012	343.089	-354.187	-0.008	23.091	-0.002	-0.763	11.582	-3.516	-16.307	330.712	-357.850	-359.991	14.362	0.001	-5.808	357.165	-3.508	-0.473	6.009	-358.729	-0.820	12.063	-357.479	0.000	-0.000	0.000	-1.926	352.594	-345.675	-6.609	1.535	-96.665	-23.347	1.237	-359.482	-350.514	356.453	-356.243	-358.736	3.168	-31.330	0.000	0.000	-32.248	-358.348	0.588	-39.296	0.001	-0.002	-39.315	-351.670	351.783	-38.459	0.000	-0.000	-33.559	-354.440	355.209	-43.163	0.001	-0.002	-40.799	-3.531	26.491	-16.882	-8.430	19.946	-354.518	-2.210	347.644	-358.599	-349.110	353.355	-354.343	-333.325	327.636	-314.750	-335.672	336.620	-6.431	-356.781	38.652	-85.601	-5.598	4.576	-331.057	-359.692	1.066	-327.813	-4.315	1.717	-329.610	-359.724	1.014	-329.540	-18.458	355.965	-321.919	-359.707	1.043	-328.575	-5.194	356.742	-328.068	-359.744	0.980	-330.686	-345.805	44.762	-346.379	-337.599	356.673	-349.419	
-13.311	89.057	27.718	-331.578	17.075	-351.405	-6.977	343.117	-354.226	-0.008	23.036	-0.002	-0.767	11.571	-3.501	-16.325	330.674	-357.874	-359.991	14.431	0.001	-5.791	357.125	-3.508	-0.477	6.012	-358.732	-0.829	12.070	-357.487	0.000	-0.000	-0.000	-1.922	352.596	-345.682	-6.608	1.527	-96.675	-23.357	1.232	-359.462	-350.474	356.462	-356.250	-358.734	3.169	-31.335	0.000	0.000	-32.255	-358.339	0.592	-39.293	0.001	-0.002	-39.312	-351.667	351.787	-38.453	0.000	-0.000	-33.550	-354.434	355.209	-43.162	0.001	-0.002	-40.798	-3.533	26.492	-16.886	-8.436	19.945	-354.531	-2.211	347.622	-358.600	-349.115	353.351	-354.357	-333.238	327.631	-314.769	-335.704	336.621	-6.491	-356.826	38.670	-85.627	-5.617	4.548	-331.253	-359.697	1.059	-328.030	-4.297	1.704	-329.747	-359.726	1.010	-329.678	-18.488	355.977	-322.008	-359.708	1.040	-328.668	-5.217	356.752	-328.142	-359.745	0.977	-330.765	-345.877	44.789	-346.339	-337.784	356.607	-349.149	
